<svg width="1204" height="504" viewBox="0 0 1204 504" fill="none" xmlns="http://www.w3.org/2000/svg">
<g filter="url(#filter0_ii_1_250)">
<rect width="388" height="503.74" rx="18" fill="#101823"/>
</g>
<g clip-path="url(#clip0_1_250)">
<line x1="-88.8739" y1="112.981" x2="185.716" y2="271.515" stroke="white" stroke-width="1.88731"/>
<line x1="-88.8739" y1="112.981" x2="185.716" y2="271.515" stroke="url(#paint0_linear_1_250)" stroke-width="1.88731"/>
<line x1="-4.42856" y1="-33.2469" x2="734.348" y2="393.286" stroke="white" stroke-width="1.88731"/>
<line x1="-4.42856" y1="-33.2469" x2="734.348" y2="393.286" stroke="url(#paint1_linear_1_250)" stroke-width="1.88731"/>
<line x1="262.852" y1="-31.6125" x2="-327.733" y2="309.362" stroke="white" stroke-width="1.88731"/>
<line x1="262.852" y1="-31.6125" x2="-327.733" y2="309.362" stroke="url(#paint2_linear_1_250)" stroke-width="1.88731"/>
<line x1="423.677" y1="65.1717" x2="-720.343" y2="725.672" stroke="white" stroke-width="1.88731" stroke-dasharray="6 6"/>
<line x1="423.677" y1="65.1717" x2="-720.343" y2="725.672" stroke="url(#paint3_linear_1_250)" stroke-width="1.88731" stroke-dasharray="6 6"/>
<line x1="613.766" y1="138.875" x2="-530.253" y2="799.375" stroke="white" stroke-width="1.88731" stroke-dasharray="6 6"/>
<line x1="613.766" y1="138.875" x2="-530.253" y2="799.375" stroke="url(#paint4_linear_1_250)" stroke-width="1.88731" stroke-dasharray="6 6"/>
<line x1="-86.5479" y1="145.594" x2="188.042" y2="304.129" stroke="white" stroke-width="1.88731"/>
<line x1="-86.5479" y1="145.594" x2="188.042" y2="304.129" stroke="url(#paint5_linear_1_250)" stroke-width="1.88731"/>
<line x1="-2.10288" y1="-0.633392" x2="736.673" y2="425.899" stroke="white" stroke-width="1.88731" stroke-dasharray="6 6"/>
<line x1="-2.10288" y1="-0.633392" x2="736.673" y2="425.899" stroke="url(#paint6_linear_1_250)" stroke-width="1.88731" stroke-dasharray="6 6"/>
<line x1="265.178" y1="1.00107" x2="-325.407" y2="341.976" stroke="white" stroke-width="1.88731"/>
<line x1="265.178" y1="1.00107" x2="-325.407" y2="341.976" stroke="url(#paint7_linear_1_250)" stroke-width="1.88731"/>
<line x1="349.621" y1="147.229" x2="-712.126" y2="760.229" stroke="white" stroke-width="1.88731"/>
<line x1="349.621" y1="147.229" x2="-712.126" y2="760.229" stroke="url(#paint8_linear_1_250)" stroke-width="1.88731"/>
</g>
<g filter="url(#filter1_ii_1_250)">
<rect x="408" width="388" height="503.74" rx="18" fill="#101823"/>
</g>
<g clip-path="url(#clip1_1_250)">
<path d="M644.204 42.0346C601.637 84.6012 571.002 130.916 555.837 171.322C540.609 211.897 541.21 245.789 559.797 264.376C578.385 282.963 612.276 283.564 652.851 268.336C693.257 253.172 739.572 222.536 782.139 179.969C824.705 137.403 855.34 91.0884 870.504 50.6825C885.732 10.108 885.132 -23.7836 866.544 -42.371L867.824 -43.6506L868.719 -42.73C905.733 -3.5926 868.755 94.9364 785.411 179.245L783.418 181.249C698.006 266.662 597.314 304.452 558.518 265.655L557.622 264.735C520.315 225.287 558.179 125.5 642.924 40.755L644.928 38.7623C729.906 -45.2427 829.33 -82.1436 867.824 -43.6506L866.544 -42.371C847.957 -60.9582 814.065 -61.5591 773.491 -46.3313C733.085 -31.1667 686.77 -0.53187 644.204 42.0346Z" fill="white"/>
<path d="M644.204 42.0346C601.637 84.6012 571.002 130.916 555.837 171.322C540.609 211.897 541.21 245.789 559.797 264.376C578.385 282.963 612.276 283.564 652.851 268.336C693.257 253.172 739.572 222.536 782.139 179.969C824.705 137.403 855.34 91.0884 870.504 50.6825C885.732 10.108 885.132 -23.7836 866.544 -42.371L867.824 -43.6506L868.719 -42.73C905.733 -3.5926 868.755 94.9364 785.411 179.245L783.418 181.249C698.006 266.662 597.314 304.452 558.518 265.655L557.622 264.735C520.315 225.287 558.179 125.5 642.924 40.755L644.928 38.7623C729.906 -45.2427 829.33 -82.1436 867.824 -43.6506L866.544 -42.371C847.957 -60.9582 814.065 -61.5591 773.491 -46.3313C733.085 -31.1667 686.77 -0.53187 644.204 42.0346Z" fill="url(#paint9_linear_1_250)"/>
<path d="M543.326 79.221C585.893 121.788 616.528 168.103 631.693 208.509C646.921 249.083 646.32 282.975 627.733 301.562C609.145 320.15 575.254 320.75 534.679 305.523C494.273 290.358 447.958 259.723 405.391 217.156C362.825 174.589 332.19 128.275 317.026 87.8689C301.798 47.2944 302.399 13.4028 320.986 -5.18457L319.706 -6.46415L318.811 -5.54363C281.797 33.5938 318.775 132.123 402.119 216.431L404.112 218.435C489.524 303.848 590.216 341.638 629.012 302.842L629.908 301.921C667.215 262.473 629.351 162.686 544.606 77.9414L542.602 75.9488C457.624 -8.05631 358.2 -44.9572 319.706 -6.46415L320.986 -5.18457C339.573 -23.7718 373.465 -24.3727 414.039 -9.14491C454.445 6.01968 500.76 36.6545 543.326 79.221Z" fill="white"/>
<path d="M543.326 79.221C585.893 121.788 616.528 168.103 631.693 208.509C646.921 249.083 646.32 282.975 627.733 301.562C609.145 320.15 575.254 320.75 534.679 305.523C494.273 290.358 447.958 259.723 405.391 217.156C362.825 174.589 332.19 128.275 317.026 87.8689C301.798 47.2944 302.399 13.4028 320.986 -5.18457L319.706 -6.46415L318.811 -5.54363C281.797 33.5938 318.775 132.123 402.119 216.431L404.112 218.435C489.524 303.848 590.216 341.638 629.012 302.842L629.908 301.921C667.215 262.473 629.351 162.686 544.606 77.9414L542.602 75.9488C457.624 -8.05631 358.2 -44.9572 319.706 -6.46415L320.986 -5.18457C339.573 -23.7718 373.465 -24.3727 414.039 -9.14491C454.445 6.01968 500.76 36.6545 543.326 79.221Z" fill="url(#paint10_linear_1_250)"/>
<path d="M397.235 -65.1386C396.177 -64.5312 395.14 -63.8819 394.128 -63.1899C393.115 -62.498 392.133 -61.7685 391.182 -61.0039L392.316 -59.5943C393.23 -60.3294 394.174 -61.0304 395.148 -61.6957C396.122 -62.361 397.119 -62.9855 398.136 -63.5695L397.235 -65.1386ZM382.826 -49.2447C384.167 -51.2129 385.621 -53.0574 387.189 -54.7733L385.853 -55.9937C384.225 -54.2122 382.718 -52.3001 381.331 -50.2637L382.826 -49.2447ZM410.822 -70.4097C408.421 -69.8581 406.092 -69.1493 403.84 -68.281L404.491 -66.5927C406.66 -67.429 408.907 -68.1133 411.228 -68.6465L410.822 -70.4097ZM376.38 -36.669C377.233 -38.9302 378.184 -41.0933 379.233 -43.1533L378.426 -43.5638L377.62 -43.9749C376.539 -41.8525 375.562 -39.6274 374.687 -37.3073L375.533 -36.9878L376.38 -36.669ZM425.297 -70.9821L425.308 -71.887C422.828 -71.9153 420.4 -71.8144 418.03 -71.5796L418.119 -70.6788L418.209 -69.7785C420.509 -70.0064 422.87 -70.1053 425.287 -70.0778L425.297 -70.9821ZM372.617 -22.9982C373.065 -25.3829 373.593 -27.6938 374.203 -29.9269L372.456 -30.4032C371.833 -28.1206 371.294 -25.7622 370.838 -23.3323L372.617 -22.9982ZM439.726 -70.3906C437.296 -70.8493 434.902 -71.2039 432.549 -71.4535L432.359 -69.6542C434.661 -69.4099 437.006 -69.0619 439.39 -68.6118L439.726 -70.3906ZM370.947 -8.8442C371.082 -11.2704 371.283 -13.6412 371.553 -15.9534L369.755 -16.1621C369.481 -13.8122 369.276 -11.4054 369.139 -8.94466L370.947 -8.8442ZM453.746 -66.7406C451.404 -67.5082 449.087 -68.1923 446.799 -68.7919L446.339 -67.0415C448.591 -66.4515 450.873 -65.7768 453.182 -65.02L453.746 -66.7406ZM370.897 5.43492C370.789 3.01141 370.738 0.629913 370.744 -1.70686L369.839 -1.70938L368.935 -1.71092C368.929 0.655134 368.981 3.06465 369.09 5.51517L370.897 5.43492ZM466.867 -60.7014L467.234 -61.5284C464.991 -62.521 462.765 -63.4458 460.559 -64.3008L460.231 -63.4579L459.905 -62.6141C462.084 -61.7697 464.283 -60.8559 466.502 -59.8742L466.867 -60.7014ZM372.12 19.6732C371.82 17.2707 371.568 14.9005 371.366 12.565L369.563 12.7206C369.767 15.0796 370.021 17.4727 370.324 19.8971L371.221 19.7847L372.12 19.6732ZM479.751 -54.3535L480.182 -55.1488C478.034 -56.3121 475.897 -57.419 473.774 -58.467L472.972 -56.8436C475.074 -55.8061 477.191 -54.71 479.321 -53.5572L479.751 -54.3535ZM374.37 33.8005C373.913 31.4254 373.499 29.0757 373.128 26.753L371.341 27.0379C371.715 29.38 372.133 31.7491 372.593 34.1425L373.481 33.9723L374.37 33.8005ZM492.627 -47.8544C490.565 -49.1536 488.51 -50.4041 486.464 -51.6044L485.549 -50.0432C487.578 -48.8528 489.616 -47.613 491.662 -46.3237L492.627 -47.8544ZM377.482 47.7926C376.892 45.4463 376.34 43.1197 375.827 40.8148L374.061 41.208C374.578 43.5293 375.133 45.8718 375.727 48.2337L377.482 47.7926ZM504.088 -39.0736L504.614 -39.8105C502.629 -41.2226 500.649 -42.5918 498.675 -43.9176L497.666 -42.4154C499.627 -41.099 501.594 -39.7391 503.565 -38.3364L504.088 -39.0736ZM381.322 61.5929C380.621 59.2903 379.955 57.0026 379.322 54.7324L377.578 55.2187C378.215 57.503 378.887 59.8038 379.592 62.1199L380.457 61.8556L381.322 61.5929ZM515.583 -30.451L516.144 -31.1608C514.243 -32.66 512.343 -34.1218 510.446 -35.5454L509.36 -34.0986C511.245 -32.6839 513.133 -31.2305 515.023 -29.7401L515.583 -30.451ZM385.8 75.1996C384.997 72.9256 384.226 70.6631 383.485 68.4146L381.766 68.981C382.511 71.2422 383.287 73.5164 384.095 75.8025L385.8 75.1996ZM527.252 -21.9904C525.416 -23.5741 523.58 -25.1243 521.744 -26.6402L520.592 -25.2449C522.417 -23.7375 524.243 -22.1956 526.069 -20.6203L527.252 -21.9904ZM390.854 88.6257C389.962 86.3898 389.098 84.1627 388.263 81.9464L386.57 82.5854C387.408 84.8129 388.277 87.0502 389.174 89.2969L390.854 88.6257ZM537.975 -12.3516C536.209 -14.0041 534.44 -15.6263 532.67 -17.2177L532.065 -16.5449L531.459 -15.8731C533.221 -14.2897 534.981 -12.675 536.739 -11.0306L537.975 -12.3516ZM396.415 101.834C395.44 99.6315 394.492 97.4356 393.57 95.248L391.903 95.9505C392.829 98.1484 393.782 100.354 394.762 102.567L396.415 101.834ZM548.305 -2.32084C546.6 -4.03809 544.892 -5.72824 543.181 -7.38997L541.92 -6.09217C543.623 -4.43832 545.323 -2.75565 547.02 -1.04629L548.305 -2.32084ZM402.453 114.841C401.406 112.683 400.383 110.529 399.386 108.381L398.566 108.762L397.745 109.143C398.747 111.301 399.774 113.464 400.826 115.631L402.453 114.841ZM558.269 8.07875C556.633 6.31072 554.992 4.56746 553.346 2.84984L552.693 3.47614L552.039 4.1008C553.678 5.81106 555.312 7.54734 556.942 9.30802L558.269 8.07875ZM408.935 127.649C407.812 125.517 406.712 123.389 405.637 121.264L404.022 122.082C405.102 124.215 406.207 126.353 407.334 128.493L408.134 128.07L408.935 127.649ZM567.199 19.4109L567.883 18.8192C566.3 16.9905 564.71 15.1852 563.115 13.4033L561.766 14.6099C563.355 16.3844 564.938 18.1823 566.515 20.0035L567.199 19.4109ZM415.816 140.218C414.63 138.13 413.466 136.043 412.325 133.958L411.531 134.393L410.737 134.827C411.883 136.92 413.052 139.015 414.242 141.112L415.03 140.665L415.816 140.218ZM576.424 30.4145L577.126 29.8432C575.607 27.9717 574.08 26.1211 572.547 24.2925L571.853 24.8748L571.16 25.4555C572.687 27.2768 574.208 29.1199 575.721 30.9842L576.424 30.4145ZM423.096 152.583C421.847 150.534 420.62 148.485 419.414 146.437L418.634 146.897L417.855 147.356C419.065 149.412 420.297 151.468 421.55 153.524L423.096 152.583ZM586.032 41.1648C584.572 39.2497 583.104 37.3541 581.629 35.4788L580.918 36.0391L580.207 36.5977C581.676 38.4659 583.138 40.3541 584.592 42.2621L586.032 41.1648ZM430.749 164.728C429.437 162.713 428.144 160.695 426.873 158.677L426.107 159.159L425.341 159.642C426.618 161.668 427.916 163.693 429.234 165.716L429.992 165.222L430.749 164.728ZM594.595 52.756C593.189 50.7927 591.774 48.8478 590.351 46.9217L589.623 47.4587L588.895 47.9973C590.313 49.916 591.723 51.8538 593.123 53.8098L594.595 52.756ZM435.228 174.702C435.909 175.699 436.592 176.691 437.278 177.679L438.764 176.647C438.081 175.663 437.401 174.674 436.722 173.681C436.044 172.688 435.37 171.694 434.702 170.7L433.199 171.709C433.87 172.707 434.547 173.705 435.228 174.702ZM599.291 62.6282C599.969 63.6211 600.643 64.6144 601.311 65.6084L602.812 64.6C602.141 63.6023 601.466 62.6041 600.785 61.6075C600.104 60.6107 599.42 59.6179 598.734 58.63L597.249 59.6617C597.932 60.6459 598.613 61.6352 599.291 62.6282ZM446.389 188.85L447.116 188.312C445.699 186.393 444.29 184.456 442.89 182.5L442.154 183.026L441.418 183.553C442.824 185.516 444.238 187.461 445.661 189.387L446.389 188.85ZM610.67 76.6671C609.394 74.6413 608.097 72.6156 606.779 70.5923L606.02 71.0861L605.263 71.5809C606.575 73.5965 607.867 75.6137 609.139 77.6317L609.906 77.1495L610.67 76.6671ZM455.094 200.27L455.806 199.711C454.337 197.843 452.875 195.954 451.42 194.046L449.981 195.144C451.441 197.059 452.908 198.954 454.383 200.83L455.094 200.27ZM618.158 88.9527C616.948 86.8967 615.716 84.8404 614.462 82.7842L612.917 83.7257C614.165 85.7742 615.393 87.8231 616.598 89.8712L617.378 89.4118L618.158 88.9527ZM464.159 211.434L464.853 210.853C463.326 209.032 461.805 207.189 460.292 205.324L459.589 205.894L458.887 206.465C460.406 208.337 461.933 210.187 463.466 212.016L464.159 211.434ZM625.276 101.481C624.13 99.3884 622.961 97.2931 621.77 95.1969L620.983 95.6437L620.197 96.0908C621.383 98.1788 622.547 100.266 623.688 102.351L624.481 101.916L625.276 101.481ZM474.245 221.699C472.657 219.925 471.075 218.126 469.498 216.305L468.814 216.898L468.129 217.489C469.713 219.318 471.302 221.124 472.897 222.906L474.245 221.699ZM631.99 114.227C630.91 112.094 629.806 109.956 628.678 107.816L627.878 108.238L627.078 108.66C628.201 110.791 629.3 112.92 630.375 115.045L631.99 114.227ZM483.32 232.832L483.973 232.208C482.335 230.497 480.701 228.761 479.071 227L477.743 228.23C479.38 229.998 481.021 231.741 482.666 233.459L483.32 232.832ZM638.268 127.165C637.266 125.008 636.239 122.845 635.187 120.678L633.559 121.467C634.607 123.626 635.63 125.779 636.627 127.928L637.447 127.546L638.268 127.165ZM494.092 242.401C492.39 240.747 490.689 239.065 488.992 237.355L487.708 238.629C489.413 240.347 491.121 242.037 492.832 243.698L494.092 242.401ZM644.11 140.358C643.184 138.16 642.231 135.954 641.251 133.742L639.596 134.476C640.572 136.678 641.521 138.873 642.443 141.06L644.11 140.358ZM503.949 252.854L504.553 252.182C502.792 250.598 501.032 248.984 499.274 247.339L498.037 248.66C499.804 250.313 501.572 251.935 503.342 253.527L503.949 252.854ZM649.442 153.724C648.603 151.496 647.736 149.258 646.839 147.012L645.159 147.683C646.051 149.919 646.915 152.146 647.75 154.362L648.596 154.042L649.442 153.724ZM515.421 261.553C513.596 260.046 511.769 258.505 509.943 256.929L508.761 258.299C510.597 259.883 512.433 261.433 514.268 262.949L515.421 261.553ZM654.247 167.328C653.502 165.066 652.726 162.792 651.918 160.506L650.212 161.11C651.015 163.384 651.787 165.645 652.528 167.894L654.247 167.328ZM526.653 270.407C524.768 268.992 522.879 267.54 520.989 266.049L520.43 266.759L519.869 267.469C521.77 268.968 523.669 270.431 525.565 271.855L526.653 270.407ZM658.434 181.09C657.797 178.806 657.126 176.505 656.421 174.189L655.556 174.453L654.69 174.716C655.391 177.019 656.058 179.306 656.691 181.576L658.434 181.09ZM538.346 278.724C536.386 277.408 534.419 276.048 532.448 274.645L531.399 276.119C533.383 277.531 535.364 278.9 537.338 280.226L538.346 278.724ZM661.952 195.101C661.435 192.779 660.879 190.437 660.286 188.075L659.408 188.296L658.531 188.516C659.121 190.862 659.672 193.189 660.186 195.494L661.952 195.101ZM550.464 286.352C548.435 285.161 546.397 283.921 544.35 282.632L543.867 283.397L543.386 284.163C545.448 285.462 547.503 286.713 549.549 287.913L550.464 286.352ZM664.672 209.271C664.298 206.929 663.88 204.559 663.42 202.166L661.643 202.508C662.1 204.883 662.513 207.233 662.885 209.555L664.672 209.271ZM563.04 293.153C560.938 292.115 558.821 291.019 556.692 289.866L556.262 290.662L555.831 291.457C557.979 292.621 560.116 293.727 562.239 294.775L563.04 293.153ZM666.449 223.588C666.245 221.229 665.991 218.836 665.689 216.411L664.791 216.524L663.893 216.635C664.193 219.038 664.444 221.409 664.646 223.744L666.449 223.588ZM575.781 299.766L576.108 298.923C573.929 298.078 571.729 297.164 569.511 296.183L568.779 297.837C571.022 298.83 573.248 299.754 575.454 300.609L575.781 299.766ZM667.078 238.019C667.084 235.653 667.032 233.244 666.923 230.793L666.019 230.834L665.116 230.874C665.224 233.297 665.275 235.679 665.269 238.015L666.174 238.018L667.078 238.019ZM589.673 303.35C587.422 302.76 585.14 302.085 582.831 301.328L582.267 303.049C584.609 303.817 586.926 304.501 589.214 305.1L589.673 303.35ZM666.258 252.471C666.532 250.121 666.737 247.714 666.873 245.253L665.066 245.153C664.931 247.579 664.73 249.95 664.46 252.262L666.258 252.471ZM603.654 305.963C601.352 305.718 599.007 305.37 596.623 304.92L596.287 306.699C598.717 307.158 601.11 307.513 603.463 307.763L603.654 305.963ZM663.555 266.712C664.179 264.43 664.719 262.071 665.175 259.641L663.396 259.307C662.948 261.691 662.42 264.002 661.81 266.235L663.555 266.712ZM617.893 306.988L617.804 306.087C615.504 306.315 613.143 306.414 610.726 306.386L610.715 307.291L610.705 308.196C613.185 308.224 615.613 308.123 617.983 307.888L617.893 306.988ZM658.393 280.283C659.473 278.161 660.45 275.936 661.326 273.616L660.479 273.297L659.633 272.977C658.78 275.239 657.829 277.402 656.78 279.462L657.586 279.873L658.393 280.283ZM631.522 302.901C629.353 303.738 627.106 304.422 624.785 304.955L625.19 306.718C627.592 306.167 629.922 305.459 632.173 304.59L631.522 302.901ZM650.16 292.303C651.788 290.522 653.295 288.609 654.682 286.572L653.934 286.063L653.186 285.554C651.845 287.522 650.391 289.366 648.824 291.082L650.16 292.303ZM641.885 299.498C642.898 298.807 643.879 298.078 644.83 297.313L644.263 296.609L643.696 295.903C642.783 296.638 641.838 297.339 640.865 298.004C639.891 298.67 638.894 299.294 637.877 299.878L638.778 301.447C639.836 300.84 640.872 300.19 641.885 299.498Z" fill="white"/>
<path d="M397.235 -65.1386C396.177 -64.5312 395.14 -63.8819 394.128 -63.1899C393.115 -62.498 392.133 -61.7685 391.182 -61.0039L392.316 -59.5943C393.23 -60.3294 394.174 -61.0304 395.148 -61.6957C396.122 -62.361 397.119 -62.9855 398.136 -63.5695L397.235 -65.1386ZM382.826 -49.2447C384.167 -51.2129 385.621 -53.0574 387.189 -54.7733L385.853 -55.9937C384.225 -54.2122 382.718 -52.3001 381.331 -50.2637L382.826 -49.2447ZM410.822 -70.4097C408.421 -69.8581 406.092 -69.1493 403.84 -68.281L404.491 -66.5927C406.66 -67.429 408.907 -68.1133 411.228 -68.6465L410.822 -70.4097ZM376.38 -36.669C377.233 -38.9302 378.184 -41.0933 379.233 -43.1533L378.426 -43.5638L377.62 -43.9749C376.539 -41.8525 375.562 -39.6274 374.687 -37.3073L375.533 -36.9878L376.38 -36.669ZM425.297 -70.9821L425.308 -71.887C422.828 -71.9153 420.4 -71.8144 418.03 -71.5796L418.119 -70.6788L418.209 -69.7785C420.509 -70.0064 422.87 -70.1053 425.287 -70.0778L425.297 -70.9821ZM372.617 -22.9982C373.065 -25.3829 373.593 -27.6938 374.203 -29.9269L372.456 -30.4032C371.833 -28.1206 371.294 -25.7622 370.838 -23.3323L372.617 -22.9982ZM439.726 -70.3906C437.296 -70.8493 434.902 -71.2039 432.549 -71.4535L432.359 -69.6542C434.661 -69.4099 437.006 -69.0619 439.39 -68.6118L439.726 -70.3906ZM370.947 -8.8442C371.082 -11.2704 371.283 -13.6412 371.553 -15.9534L369.755 -16.1621C369.481 -13.8122 369.276 -11.4054 369.139 -8.94466L370.947 -8.8442ZM453.746 -66.7406C451.404 -67.5082 449.087 -68.1923 446.799 -68.7919L446.339 -67.0415C448.591 -66.4515 450.873 -65.7768 453.182 -65.02L453.746 -66.7406ZM370.897 5.43492C370.789 3.01141 370.738 0.629913 370.744 -1.70686L369.839 -1.70938L368.935 -1.71092C368.929 0.655134 368.981 3.06465 369.09 5.51517L370.897 5.43492ZM466.867 -60.7014L467.234 -61.5284C464.991 -62.521 462.765 -63.4458 460.559 -64.3008L460.231 -63.4579L459.905 -62.6141C462.084 -61.7697 464.283 -60.8559 466.502 -59.8742L466.867 -60.7014ZM372.12 19.6732C371.82 17.2707 371.568 14.9005 371.366 12.565L369.563 12.7206C369.767 15.0796 370.021 17.4727 370.324 19.8971L371.221 19.7847L372.12 19.6732ZM479.751 -54.3535L480.182 -55.1488C478.034 -56.3121 475.897 -57.419 473.774 -58.467L472.972 -56.8436C475.074 -55.8061 477.191 -54.71 479.321 -53.5572L479.751 -54.3535ZM374.37 33.8005C373.913 31.4254 373.499 29.0757 373.128 26.753L371.341 27.0379C371.715 29.38 372.133 31.7491 372.593 34.1425L373.481 33.9723L374.37 33.8005ZM492.627 -47.8544C490.565 -49.1536 488.51 -50.4041 486.464 -51.6044L485.549 -50.0432C487.578 -48.8528 489.616 -47.613 491.662 -46.3237L492.627 -47.8544ZM377.482 47.7926C376.892 45.4463 376.34 43.1197 375.827 40.8148L374.061 41.208C374.578 43.5293 375.133 45.8718 375.727 48.2337L377.482 47.7926ZM504.088 -39.0736L504.614 -39.8105C502.629 -41.2226 500.649 -42.5918 498.675 -43.9176L497.666 -42.4154C499.627 -41.099 501.594 -39.7391 503.565 -38.3364L504.088 -39.0736ZM381.322 61.5929C380.621 59.2903 379.955 57.0026 379.322 54.7324L377.578 55.2187C378.215 57.503 378.887 59.8038 379.592 62.1199L380.457 61.8556L381.322 61.5929ZM515.583 -30.451L516.144 -31.1608C514.243 -32.66 512.343 -34.1218 510.446 -35.5454L509.36 -34.0986C511.245 -32.6839 513.133 -31.2305 515.023 -29.7401L515.583 -30.451ZM385.8 75.1996C384.997 72.9256 384.226 70.6631 383.485 68.4146L381.766 68.981C382.511 71.2422 383.287 73.5164 384.095 75.8025L385.8 75.1996ZM527.252 -21.9904C525.416 -23.5741 523.58 -25.1243 521.744 -26.6402L520.592 -25.2449C522.417 -23.7375 524.243 -22.1956 526.069 -20.6203L527.252 -21.9904ZM390.854 88.6257C389.962 86.3898 389.098 84.1627 388.263 81.9464L386.57 82.5854C387.408 84.8129 388.277 87.0502 389.174 89.2969L390.854 88.6257ZM537.975 -12.3516C536.209 -14.0041 534.44 -15.6263 532.67 -17.2177L532.065 -16.5449L531.459 -15.8731C533.221 -14.2897 534.981 -12.675 536.739 -11.0306L537.975 -12.3516ZM396.415 101.834C395.44 99.6315 394.492 97.4356 393.57 95.248L391.903 95.9505C392.829 98.1484 393.782 100.354 394.762 102.567L396.415 101.834ZM548.305 -2.32084C546.6 -4.03809 544.892 -5.72824 543.181 -7.38997L541.92 -6.09217C543.623 -4.43832 545.323 -2.75565 547.02 -1.04629L548.305 -2.32084ZM402.453 114.841C401.406 112.683 400.383 110.529 399.386 108.381L398.566 108.762L397.745 109.143C398.747 111.301 399.774 113.464 400.826 115.631L402.453 114.841ZM558.269 8.07875C556.633 6.31072 554.992 4.56746 553.346 2.84984L552.693 3.47614L552.039 4.1008C553.678 5.81106 555.312 7.54734 556.942 9.30802L558.269 8.07875ZM408.935 127.649C407.812 125.517 406.712 123.389 405.637 121.264L404.022 122.082C405.102 124.215 406.207 126.353 407.334 128.493L408.134 128.07L408.935 127.649ZM567.199 19.4109L567.883 18.8192C566.3 16.9905 564.71 15.1852 563.115 13.4033L561.766 14.6099C563.355 16.3844 564.938 18.1823 566.515 20.0035L567.199 19.4109ZM415.816 140.218C414.63 138.13 413.466 136.043 412.325 133.958L411.531 134.393L410.737 134.827C411.883 136.92 413.052 139.015 414.242 141.112L415.03 140.665L415.816 140.218ZM576.424 30.4145L577.126 29.8432C575.607 27.9717 574.08 26.1211 572.547 24.2925L571.853 24.8748L571.16 25.4555C572.687 27.2768 574.208 29.1199 575.721 30.9842L576.424 30.4145ZM423.096 152.583C421.847 150.534 420.62 148.485 419.414 146.437L418.634 146.897L417.855 147.356C419.065 149.412 420.297 151.468 421.55 153.524L423.096 152.583ZM586.032 41.1648C584.572 39.2497 583.104 37.3541 581.629 35.4788L580.918 36.0391L580.207 36.5977C581.676 38.4659 583.138 40.3541 584.592 42.2621L586.032 41.1648ZM430.749 164.728C429.437 162.713 428.144 160.695 426.873 158.677L426.107 159.159L425.341 159.642C426.618 161.668 427.916 163.693 429.234 165.716L429.992 165.222L430.749 164.728ZM594.595 52.756C593.189 50.7927 591.774 48.8478 590.351 46.9217L589.623 47.4587L588.895 47.9973C590.313 49.916 591.723 51.8538 593.123 53.8098L594.595 52.756ZM435.228 174.702C435.909 175.699 436.592 176.691 437.278 177.679L438.764 176.647C438.081 175.663 437.401 174.674 436.722 173.681C436.044 172.688 435.37 171.694 434.702 170.7L433.199 171.709C433.87 172.707 434.547 173.705 435.228 174.702ZM599.291 62.6282C599.969 63.6211 600.643 64.6144 601.311 65.6084L602.812 64.6C602.141 63.6023 601.466 62.6041 600.785 61.6075C600.104 60.6107 599.42 59.6179 598.734 58.63L597.249 59.6617C597.932 60.6459 598.613 61.6352 599.291 62.6282ZM446.389 188.85L447.116 188.312C445.699 186.393 444.29 184.456 442.89 182.5L442.154 183.026L441.418 183.553C442.824 185.516 444.238 187.461 445.661 189.387L446.389 188.85ZM610.67 76.6671C609.394 74.6413 608.097 72.6156 606.779 70.5923L606.02 71.0861L605.263 71.5809C606.575 73.5965 607.867 75.6137 609.139 77.6317L609.906 77.1495L610.67 76.6671ZM455.094 200.27L455.806 199.711C454.337 197.843 452.875 195.954 451.42 194.046L449.981 195.144C451.441 197.059 452.908 198.954 454.383 200.83L455.094 200.27ZM618.158 88.9527C616.948 86.8967 615.716 84.8404 614.462 82.7842L612.917 83.7257C614.165 85.7742 615.393 87.8231 616.598 89.8712L617.378 89.4118L618.158 88.9527ZM464.159 211.434L464.853 210.853C463.326 209.032 461.805 207.189 460.292 205.324L459.589 205.894L458.887 206.465C460.406 208.337 461.933 210.187 463.466 212.016L464.159 211.434ZM625.276 101.481C624.13 99.3884 622.961 97.2931 621.77 95.1969L620.983 95.6437L620.197 96.0908C621.383 98.1788 622.547 100.266 623.688 102.351L624.481 101.916L625.276 101.481ZM474.245 221.699C472.657 219.925 471.075 218.126 469.498 216.305L468.814 216.898L468.129 217.489C469.713 219.318 471.302 221.124 472.897 222.906L474.245 221.699ZM631.99 114.227C630.91 112.094 629.806 109.956 628.678 107.816L627.878 108.238L627.078 108.66C628.201 110.791 629.3 112.92 630.375 115.045L631.99 114.227ZM483.32 232.832L483.973 232.208C482.335 230.497 480.701 228.761 479.071 227L477.743 228.23C479.38 229.998 481.021 231.741 482.666 233.459L483.32 232.832ZM638.268 127.165C637.266 125.008 636.239 122.845 635.187 120.678L633.559 121.467C634.607 123.626 635.63 125.779 636.627 127.928L637.447 127.546L638.268 127.165ZM494.092 242.401C492.39 240.747 490.689 239.065 488.992 237.355L487.708 238.629C489.413 240.347 491.121 242.037 492.832 243.698L494.092 242.401ZM644.11 140.358C643.184 138.16 642.231 135.954 641.251 133.742L639.596 134.476C640.572 136.678 641.521 138.873 642.443 141.06L644.11 140.358ZM503.949 252.854L504.553 252.182C502.792 250.598 501.032 248.984 499.274 247.339L498.037 248.66C499.804 250.313 501.572 251.935 503.342 253.527L503.949 252.854ZM649.442 153.724C648.603 151.496 647.736 149.258 646.839 147.012L645.159 147.683C646.051 149.919 646.915 152.146 647.75 154.362L648.596 154.042L649.442 153.724ZM515.421 261.553C513.596 260.046 511.769 258.505 509.943 256.929L508.761 258.299C510.597 259.883 512.433 261.433 514.268 262.949L515.421 261.553ZM654.247 167.328C653.502 165.066 652.726 162.792 651.918 160.506L650.212 161.11C651.015 163.384 651.787 165.645 652.528 167.894L654.247 167.328ZM526.653 270.407C524.768 268.992 522.879 267.54 520.989 266.049L520.43 266.759L519.869 267.469C521.77 268.968 523.669 270.431 525.565 271.855L526.653 270.407ZM658.434 181.09C657.797 178.806 657.126 176.505 656.421 174.189L655.556 174.453L654.69 174.716C655.391 177.019 656.058 179.306 656.691 181.576L658.434 181.09ZM538.346 278.724C536.386 277.408 534.419 276.048 532.448 274.645L531.399 276.119C533.383 277.531 535.364 278.9 537.338 280.226L538.346 278.724ZM661.952 195.101C661.435 192.779 660.879 190.437 660.286 188.075L659.408 188.296L658.531 188.516C659.121 190.862 659.672 193.189 660.186 195.494L661.952 195.101ZM550.464 286.352C548.435 285.161 546.397 283.921 544.35 282.632L543.867 283.397L543.386 284.163C545.448 285.462 547.503 286.713 549.549 287.913L550.464 286.352ZM664.672 209.271C664.298 206.929 663.88 204.559 663.42 202.166L661.643 202.508C662.1 204.883 662.513 207.233 662.885 209.555L664.672 209.271ZM563.04 293.153C560.938 292.115 558.821 291.019 556.692 289.866L556.262 290.662L555.831 291.457C557.979 292.621 560.116 293.727 562.239 294.775L563.04 293.153ZM666.449 223.588C666.245 221.229 665.991 218.836 665.689 216.411L664.791 216.524L663.893 216.635C664.193 219.038 664.444 221.409 664.646 223.744L666.449 223.588ZM575.781 299.766L576.108 298.923C573.929 298.078 571.729 297.164 569.511 296.183L568.779 297.837C571.022 298.83 573.248 299.754 575.454 300.609L575.781 299.766ZM667.078 238.019C667.084 235.653 667.032 233.244 666.923 230.793L666.019 230.834L665.116 230.874C665.224 233.297 665.275 235.679 665.269 238.015L666.174 238.018L667.078 238.019ZM589.673 303.35C587.422 302.76 585.14 302.085 582.831 301.328L582.267 303.049C584.609 303.817 586.926 304.501 589.214 305.1L589.673 303.35ZM666.258 252.471C666.532 250.121 666.737 247.714 666.873 245.253L665.066 245.153C664.931 247.579 664.73 249.95 664.46 252.262L666.258 252.471ZM603.654 305.963C601.352 305.718 599.007 305.37 596.623 304.92L596.287 306.699C598.717 307.158 601.11 307.513 603.463 307.763L603.654 305.963ZM663.555 266.712C664.179 264.43 664.719 262.071 665.175 259.641L663.396 259.307C662.948 261.691 662.42 264.002 661.81 266.235L663.555 266.712ZM617.893 306.988L617.804 306.087C615.504 306.315 613.143 306.414 610.726 306.386L610.715 307.291L610.705 308.196C613.185 308.224 615.613 308.123 617.983 307.888L617.893 306.988ZM658.393 280.283C659.473 278.161 660.45 275.936 661.326 273.616L660.479 273.297L659.633 272.977C658.78 275.239 657.829 277.402 656.78 279.462L657.586 279.873L658.393 280.283ZM631.522 302.901C629.353 303.738 627.106 304.422 624.785 304.955L625.19 306.718C627.592 306.167 629.922 305.459 632.173 304.59L631.522 302.901ZM650.16 292.303C651.788 290.522 653.295 288.609 654.682 286.572L653.934 286.063L653.186 285.554C651.845 287.522 650.391 289.366 648.824 291.082L650.16 292.303ZM641.885 299.498C642.898 298.807 643.879 298.078 644.83 297.313L644.263 296.609L643.696 295.903C642.783 296.638 641.838 297.339 640.865 298.004C639.891 298.67 638.894 299.294 637.877 299.878L638.778 301.447C639.836 300.84 640.872 300.19 641.885 299.498Z" fill="url(#paint11_linear_1_250)"/>
</g>
<g filter="url(#filter2_ii_1_250)">
<rect x="816" width="388" height="503.74" rx="18" fill="#101823"/>
</g>
<g clip-path="url(#clip2_1_250)">
<path d="M1120.62 -28.4131C1148.18 -28.4129 1173.31 -6.75398 1191.6 28.6895C1209.87 64.0946 1221.19 113.059 1221.19 167.184C1221.19 221.309 1209.87 270.273 1191.6 305.678C1173.31 341.121 1148.18 362.78 1120.62 362.78C1093.07 362.78 1067.94 341.121 1049.65 305.678C1031.38 270.273 1020.06 221.309 1020.06 167.184C1020.06 113.058 1031.38 64.0946 1049.65 28.6895C1067.94 -6.75402 1093.07 -28.4131 1120.62 -28.4131Z" stroke="white" stroke-width="1.5"/>
<path d="M1120.62 -28.4131C1148.18 -28.4129 1173.31 -6.75398 1191.6 28.6895C1209.87 64.0946 1221.19 113.059 1221.19 167.184C1221.19 221.309 1209.87 270.273 1191.6 305.678C1173.31 341.121 1148.18 362.78 1120.62 362.78C1093.07 362.78 1067.94 341.121 1049.65 305.678C1031.38 270.273 1020.06 221.309 1020.06 167.184C1020.06 113.058 1031.38 64.0946 1049.65 28.6895C1067.94 -6.75402 1093.07 -28.4131 1120.62 -28.4131Z" stroke="url(#paint12_linear_1_250)" stroke-width="1.5"/>
<path d="M1086.9 -28.4131C1096.36 -28.4131 1105.47 -23.092 1113.85 -13.2471C1122.23 -3.405 1129.82 10.8811 1136.2 28.5996C1148.96 64.0304 1156.87 113.027 1156.87 167.184C1156.87 221.34 1148.96 270.337 1136.2 305.768C1129.82 323.486 1122.23 337.772 1113.85 347.614C1105.47 357.459 1096.36 362.78 1086.9 362.78C1077.43 362.78 1068.32 357.459 1059.94 347.614C1051.56 337.772 1043.97 323.486 1037.59 305.768C1024.83 270.337 1016.92 221.34 1016.92 167.184C1016.92 113.027 1024.83 64.0304 1037.59 28.5996C1043.97 10.8811 1051.56 -3.40499 1059.94 -13.2471C1068.32 -23.092 1077.43 -28.4131 1086.9 -28.4131Z" stroke="white" stroke-width="1.5"/>
<path d="M1086.9 -28.4131C1096.36 -28.4131 1105.47 -23.092 1113.85 -13.2471C1122.23 -3.405 1129.82 10.8811 1136.2 28.5996C1148.96 64.0304 1156.87 113.027 1156.87 167.184C1156.87 221.34 1148.96 270.337 1136.2 305.768C1129.82 323.486 1122.23 337.772 1113.85 347.614C1105.47 357.459 1096.36 362.78 1086.9 362.78C1077.43 362.78 1068.32 357.459 1059.94 347.614C1051.56 337.772 1043.97 323.486 1037.59 305.768C1024.83 270.337 1016.92 221.34 1016.92 167.184C1016.92 113.027 1024.83 64.0304 1037.59 28.5996C1043.97 10.8811 1051.56 -3.40499 1059.94 -13.2471C1068.32 -23.092 1077.43 -28.4131 1086.9 -28.4131Z" stroke="url(#paint13_linear_1_250)" stroke-width="1.5"/>
<path d="M933.101 -28.4131C942.562 -28.4131 951.674 -23.092 960.058 -13.2471C968.439 -3.405 976.021 10.8811 982.403 28.5996C995.165 64.0304 1003.07 113.027 1003.07 167.184C1003.07 221.34 995.165 270.337 982.403 305.768C976.021 323.486 968.439 337.772 960.058 347.614C951.674 357.459 942.562 362.78 933.101 362.78C923.64 362.78 914.528 357.459 906.144 347.614C897.762 337.772 890.18 323.486 883.798 305.768C871.036 270.337 863.128 221.34 863.128 167.184C863.128 113.027 871.036 64.0304 883.798 28.5996C890.18 10.8811 897.762 -3.40499 906.144 -13.2471C914.528 -23.092 923.64 -28.4131 933.101 -28.4131Z" stroke="white" stroke-width="1.5"/>
<path d="M933.101 -28.4131C942.562 -28.4131 951.674 -23.092 960.058 -13.2471C968.439 -3.405 976.021 10.8811 982.403 28.5996C995.165 64.0304 1003.07 113.027 1003.07 167.184C1003.07 221.34 995.165 270.337 982.403 305.768C976.021 323.486 968.439 337.772 960.058 347.614C951.674 357.459 942.562 362.78 933.101 362.78C923.64 362.78 914.528 357.459 906.144 347.614C897.762 337.772 890.18 323.486 883.798 305.768C871.036 270.337 863.128 221.34 863.128 167.184C863.128 113.027 871.036 64.0304 883.798 28.5996C890.18 10.8811 897.762 -3.40499 906.144 -13.2471C914.528 -23.092 923.64 -28.4131 933.101 -28.4131Z" stroke="url(#paint14_linear_1_250)" stroke-width="1.5"/>
<path d="M1049.44 -28.4131C1051.67 -28.4131 1053.95 -27.2023 1056.25 -24.6699C1058.55 -22.1391 1060.81 -18.3634 1062.97 -13.4316C1067.31 -3.57317 1071.23 10.7393 1074.53 28.4824C1081.13 63.9566 1085.22 112.995 1085.22 167.184C1085.22 221.372 1081.13 270.411 1074.53 305.885C1071.23 323.628 1067.31 337.94 1062.97 347.799C1060.81 352.731 1058.55 356.506 1056.25 359.037C1053.95 361.57 1051.67 362.78 1049.44 362.78C1047.21 362.78 1044.94 361.57 1042.64 359.037C1040.33 356.506 1038.08 352.731 1035.91 347.799C1031.57 337.94 1027.65 323.628 1024.35 305.885C1017.75 270.411 1013.67 221.372 1013.67 167.184C1013.67 112.995 1017.75 63.9566 1024.35 28.4824C1027.65 10.7393 1031.57 -3.57317 1035.91 -13.4316C1038.08 -18.3634 1040.33 -22.1391 1042.64 -24.6699C1044.94 -27.2025 1047.21 -28.4129 1049.44 -28.4131Z" stroke="white" stroke-width="1.5"/>
<path d="M1049.44 -28.4131C1051.67 -28.4131 1053.95 -27.2023 1056.25 -24.6699C1058.55 -22.1391 1060.81 -18.3634 1062.97 -13.4316C1067.31 -3.57317 1071.23 10.7393 1074.53 28.4824C1081.13 63.9566 1085.22 112.995 1085.22 167.184C1085.22 221.372 1081.13 270.411 1074.53 305.885C1071.23 323.628 1067.31 337.94 1062.97 347.799C1060.81 352.731 1058.55 356.506 1056.25 359.037C1053.95 361.57 1051.67 362.78 1049.44 362.78C1047.21 362.78 1044.94 361.57 1042.64 359.037C1040.33 356.506 1038.08 352.731 1035.91 347.799C1031.57 337.94 1027.65 323.628 1024.35 305.885C1017.75 270.411 1013.67 221.372 1013.67 167.184C1013.67 112.995 1017.75 63.9566 1024.35 28.4824C1027.65 10.7393 1031.57 -3.57317 1035.91 -13.4316C1038.08 -18.3634 1040.33 -22.1391 1042.64 -24.6699C1044.94 -27.2025 1047.21 -28.4129 1049.44 -28.4131Z" stroke="url(#paint15_linear_1_250)" stroke-width="1.5"/>
<path d="M970.558 -28.4131C972.786 -28.4131 975.062 -27.2023 977.364 -24.6699C979.665 -22.1391 981.921 -18.3634 984.09 -13.4316C988.426 -3.57317 992.349 10.7393 995.649 28.4824C1002.25 63.9566 1006.34 112.995 1006.34 167.184C1006.34 221.372 1002.25 270.411 995.649 305.885C992.349 323.628 988.426 337.94 984.09 347.799C981.921 352.731 979.665 356.506 977.364 359.037C975.062 361.57 972.786 362.78 970.558 362.78C968.33 362.78 966.053 361.57 963.751 359.037C961.45 356.506 959.196 352.731 957.026 347.799C952.69 337.94 948.768 323.628 945.467 305.885C938.867 270.411 934.78 221.372 934.78 167.184C934.78 112.995 938.867 63.9566 945.467 28.4824C948.768 10.7393 952.69 -3.57317 957.026 -13.4316C959.196 -18.3634 961.45 -22.1391 963.751 -24.6699C966.053 -27.2025 968.33 -28.4129 970.558 -28.4131Z" stroke="white" stroke-width="1.5"/>
<path d="M970.558 -28.4131C972.786 -28.4131 975.062 -27.2023 977.364 -24.6699C979.665 -22.1391 981.921 -18.3634 984.09 -13.4316C988.426 -3.57317 992.349 10.7393 995.649 28.4824C1002.25 63.9566 1006.34 112.995 1006.34 167.184C1006.34 221.372 1002.25 270.411 995.649 305.885C992.349 323.628 988.426 337.94 984.09 347.799C981.921 352.731 979.665 356.506 977.364 359.037C975.062 361.57 972.786 362.78 970.558 362.78C968.33 362.78 966.053 361.57 963.751 359.037C961.45 356.506 959.196 352.731 957.026 347.799C952.69 337.94 948.768 323.628 945.467 305.885C938.867 270.411 934.78 221.372 934.78 167.184C934.78 112.995 938.867 63.9566 945.467 28.4824C948.768 10.7393 952.69 -3.57317 957.026 -13.4316C959.196 -18.3634 961.45 -22.1391 963.751 -24.6699C966.053 -27.2025 968.33 -28.4129 970.558 -28.4131Z" stroke="url(#paint16_linear_1_250)" stroke-width="1.5"/>
<path d="M899.375 362.781C871.823 362.781 846.691 341.122 828.403 305.679C810.134 270.273 798.813 221.309 798.813 167.184C798.813 113.059 810.134 64.0954 828.403 28.6903C846.691 -6.75315 871.823 -28.4121 899.375 -28.4122C926.927 -28.4122 952.059 -6.75317 970.348 28.6903C988.617 64.0954 999.939 113.059 999.939 167.184C999.939 221.31 988.617 270.273 970.348 305.679C952.059 341.122 926.927 362.781 899.375 362.781Z" stroke="white" stroke-width="1.5"/>
<path d="M899.375 362.781C871.823 362.781 846.691 341.122 828.403 305.679C810.134 270.273 798.813 221.309 798.813 167.184C798.813 113.059 810.134 64.0954 828.403 28.6903C846.691 -6.75315 871.823 -28.4121 899.375 -28.4122C926.927 -28.4122 952.059 -6.75317 970.348 28.6903C988.617 64.0954 999.939 113.059 999.939 167.184C999.939 221.31 988.617 270.273 970.348 305.679C952.059 341.122 926.927 362.781 899.375 362.781Z" stroke="url(#paint17_linear_1_250)" stroke-width="1.5"/>
<line x1="1009.98" y1="-1.98145" x2="1009.98" y2="336.991" stroke="white" stroke-width="1.5" stroke-dasharray="6 6"/>
<line x1="1009.98" y1="-1.98145" x2="1009.98" y2="336.991" stroke="url(#paint18_linear_1_250)" stroke-width="1.5" stroke-dasharray="6 6"/>
</g>
<defs>
<filter id="filter0_ii_1_250" x="0" y="0" width="388" height="503.74" filterUnits="userSpaceOnUse" color-interpolation-filters="sRGB">
<feFlood flood-opacity="0" result="BackgroundImageFix"/>
<feBlend mode="normal" in="SourceGraphic" in2="BackgroundImageFix" result="shape"/>
<feColorMatrix in="SourceAlpha" type="matrix" values="0 0 0 0 0 0 0 0 0 0 0 0 0 0 0 0 0 0 127 0" result="hardAlpha"/>
<feOffset/>
<feGaussianBlur stdDeviation="17.75"/>
<feComposite in2="hardAlpha" operator="arithmetic" k2="-1" k3="1"/>
<feColorMatrix type="matrix" values="0 0 0 0 1 0 0 0 0 1 0 0 0 0 1 0 0 0 0.25 0"/>
<feBlend mode="normal" in2="shape" result="effect1_innerShadow_1_250"/>
<feColorMatrix in="SourceAlpha" type="matrix" values="0 0 0 0 0 0 0 0 0 0 0 0 0 0 0 0 0 0 127 0" result="hardAlpha"/>
<feOffset/>
<feGaussianBlur stdDeviation="81.05"/>
<feComposite in2="hardAlpha" operator="arithmetic" k2="-1" k3="1"/>
<feColorMatrix type="matrix" values="0 0 0 0 0.0156863 0 0 0 0 0.458824 0 0 0 0 0.815686 0 0 0 0.6 0"/>
<feBlend mode="normal" in2="effect1_innerShadow_1_250" result="effect2_innerShadow_1_250"/>
</filter>
<filter id="filter1_ii_1_250" x="408" y="0" width="388" height="503.74" filterUnits="userSpaceOnUse" color-interpolation-filters="sRGB">
<feFlood flood-opacity="0" result="BackgroundImageFix"/>
<feBlend mode="normal" in="SourceGraphic" in2="BackgroundImageFix" result="shape"/>
<feColorMatrix in="SourceAlpha" type="matrix" values="0 0 0 0 0 0 0 0 0 0 0 0 0 0 0 0 0 0 127 0" result="hardAlpha"/>
<feOffset/>
<feGaussianBlur stdDeviation="81.05"/>
<feComposite in2="hardAlpha" operator="arithmetic" k2="-1" k3="1"/>
<feColorMatrix type="matrix" values="0 0 0 0 0.0156863 0 0 0 0 0.458824 0 0 0 0 0.815686 0 0 0 0.6 0"/>
<feBlend mode="normal" in2="shape" result="effect1_innerShadow_1_250"/>
<feColorMatrix in="SourceAlpha" type="matrix" values="0 0 0 0 0 0 0 0 0 0 0 0 0 0 0 0 0 0 127 0" result="hardAlpha"/>
<feOffset/>
<feGaussianBlur stdDeviation="17.75"/>
<feComposite in2="hardAlpha" operator="arithmetic" k2="-1" k3="1"/>
<feColorMatrix type="matrix" values="0 0 0 0 1 0 0 0 0 1 0 0 0 0 1 0 0 0 0.25 0"/>
<feBlend mode="normal" in2="effect1_innerShadow_1_250" result="effect2_innerShadow_1_250"/>
</filter>
<filter id="filter2_ii_1_250" x="816" y="0" width="388" height="503.74" filterUnits="userSpaceOnUse" color-interpolation-filters="sRGB">
<feFlood flood-opacity="0" result="BackgroundImageFix"/>
<feBlend mode="normal" in="SourceGraphic" in2="BackgroundImageFix" result="shape"/>
<feColorMatrix in="SourceAlpha" type="matrix" values="0 0 0 0 0 0 0 0 0 0 0 0 0 0 0 0 0 0 127 0" result="hardAlpha"/>
<feOffset/>
<feGaussianBlur stdDeviation="81.05"/>
<feComposite in2="hardAlpha" operator="arithmetic" k2="-1" k3="1"/>
<feColorMatrix type="matrix" values="0 0 0 0 0.0156863 0 0 0 0 0.458824 0 0 0 0 0.815686 0 0 0 0.6 0"/>
<feBlend mode="normal" in2="shape" result="effect1_innerShadow_1_250"/>
<feColorMatrix in="SourceAlpha" type="matrix" values="0 0 0 0 0 0 0 0 0 0 0 0 0 0 0 0 0 0 127 0" result="hardAlpha"/>
<feOffset/>
<feGaussianBlur stdDeviation="17.75"/>
<feComposite in2="hardAlpha" operator="arithmetic" k2="-1" k3="1"/>
<feColorMatrix type="matrix" values="0 0 0 0 1 0 0 0 0 1 0 0 0 0 1 0 0 0 0.25 0"/>
<feBlend mode="normal" in2="effect1_innerShadow_1_250" result="effect2_innerShadow_1_250"/>
</filter>
<linearGradient id="paint0_linear_1_250" x1="112.03" y1="230.243" x2="111.383" y2="231.356" gradientUnits="userSpaceOnUse">
<stop stop-color="#19ABFF"/>
<stop offset="1" stop-color="#2B95FF"/>
</linearGradient>
<linearGradient id="paint1_linear_1_250" x1="537.028" y1="280.634" x2="536.384" y2="281.748" gradientUnits="userSpaceOnUse">
<stop stop-color="#19ABFF"/>
<stop offset="1" stop-color="#2B95FF"/>
</linearGradient>
<linearGradient id="paint2_linear_1_250" x1="-170.984" y1="217.592" x2="-171.626" y2="216.477" gradientUnits="userSpaceOnUse">
<stop stop-color="#19ABFF"/>
<stop offset="1" stop-color="#2B95FF"/>
</linearGradient>
<linearGradient id="paint3_linear_1_250" x1="-416.189" y1="548.798" x2="-416.832" y2="547.683" gradientUnits="userSpaceOnUse">
<stop stop-color="#19ABFF"/>
<stop offset="1" stop-color="#2B95FF"/>
</linearGradient>
<linearGradient id="paint4_linear_1_250" x1="-226.1" y1="622.501" x2="-226.743" y2="621.386" gradientUnits="userSpaceOnUse">
<stop stop-color="#19ABFF"/>
<stop offset="1" stop-color="#2B95FF"/>
</linearGradient>
<linearGradient id="paint5_linear_1_250" x1="114.356" y1="262.857" x2="113.709" y2="263.969" gradientUnits="userSpaceOnUse">
<stop stop-color="#19ABFF"/>
<stop offset="1" stop-color="#2B95FF"/>
</linearGradient>
<linearGradient id="paint6_linear_1_250" x1="539.354" y1="313.248" x2="538.709" y2="314.361" gradientUnits="userSpaceOnUse">
<stop stop-color="#19ABFF"/>
<stop offset="1" stop-color="#2B95FF"/>
</linearGradient>
<linearGradient id="paint7_linear_1_250" x1="-168.658" y1="250.206" x2="-169.3" y2="249.09" gradientUnits="userSpaceOnUse">
<stop stop-color="#19ABFF"/>
<stop offset="1" stop-color="#2B95FF"/>
</linearGradient>
<linearGradient id="paint8_linear_1_250" x1="-429.885" y1="596.006" x2="-430.528" y2="594.891" gradientUnits="userSpaceOnUse">
<stop stop-color="#19ABFF"/>
<stop offset="1" stop-color="#2B95FF"/>
</linearGradient>
<linearGradient id="paint9_linear_1_250" x1="574.198" y1="184.321" x2="777.594" y2="266.724" gradientUnits="userSpaceOnUse">
<stop stop-color="#19ABFF"/>
<stop offset="1" stop-color="#2B95FF"/>
</linearGradient>
<linearGradient id="paint10_linear_1_250" x1="613.332" y1="221.507" x2="409.936" y2="303.91" gradientUnits="userSpaceOnUse">
<stop stop-color="#19ABFF"/>
<stop offset="1" stop-color="#2B95FF"/>
</linearGradient>
<linearGradient id="paint11_linear_1_250" x1="641.014" y1="215.92" x2="425.883" y2="259.267" gradientUnits="userSpaceOnUse">
<stop stop-color="#19ABFF"/>
<stop offset="1" stop-color="#2B95FF"/>
</linearGradient>
<linearGradient id="paint12_linear_1_250" x1="994.791" y1="83.9451" x2="1111.51" y2="283.649" gradientUnits="userSpaceOnUse">
<stop stop-color="#19ABFF"/>
<stop offset="1" stop-color="#2B95FF"/>
</linearGradient>
<linearGradient id="paint13_linear_1_250" x1="973.701" y1="101.251" x2="1051.56" y2="265.814" gradientUnits="userSpaceOnUse">
<stop stop-color="#19ABFF"/>
<stop offset="1" stop-color="#2B95FF"/>
</linearGradient>
<linearGradient id="paint14_linear_1_250" x1="966.15" y1="32.4216" x2="813.682" y2="83.6073" gradientUnits="userSpaceOnUse">
<stop stop-color="#19ABFF"/>
<stop offset="1" stop-color="#2B95FF"/>
</linearGradient>
<linearGradient id="paint15_linear_1_250" x1="858.759" y1="138.701" x2="863.012" y2="195.811" gradientUnits="userSpaceOnUse">
<stop stop-color="#19ABFF"/>
<stop offset="1" stop-color="#2B95FF"/>
</linearGradient>
<linearGradient id="paint16_linear_1_250" x1="987.628" y1="32.4216" x2="902.561" y2="47.1716" gradientUnits="userSpaceOnUse">
<stop stop-color="#19ABFF"/>
<stop offset="1" stop-color="#2B95FF"/>
</linearGradient>
<linearGradient id="paint17_linear_1_250" x1="978.472" y1="59.5105" x2="781.09" y2="154.436" gradientUnits="userSpaceOnUse">
<stop stop-color="#19ABFF"/>
<stop offset="1" stop-color="#2B95FF"/>
</linearGradient>
<linearGradient id="paint18_linear_1_250" x1="1008.8" y1="-717.255" x2="1008.65" y2="-717.255" gradientUnits="userSpaceOnUse">
<stop stop-color="#19ABFF"/>
<stop offset="1" stop-color="#2B95FF"/>
</linearGradient>
<clipPath id="clip0_1_250">
<path d="M0 10.1838C0 4.66099 4.47715 0.183838 10 0.183838H378C383.523 0.183838 388 4.66099 388 10.1838V334.184H0V10.1838Z" fill="white"/>
</clipPath>
<clipPath id="clip1_1_250">
<rect width="388" height="334" fill="white" transform="translate(408 0.183838)"/>
</clipPath>
<clipPath id="clip2_1_250">
<rect width="388" height="334" fill="white" transform="translate(816 0.183838)"/>
</clipPath>
</defs>
</svg>
